<?xml version="1.0" encoding="UTF-8"?>
<svg width="40" height="40" viewBox="0 0 40 40" fill="none" xmlns="http://www.w3.org/2000/svg">
  <!-- Background Circle -->
  <circle cx="20" cy="20" r="19" fill="url(#gradient1)" opacity="0.1"/>
  
  <!-- Vehicle Shape -->
  <path d="M10 25 L30 25 L27 15 L13 15 Z" fill="url(#gradient2)" stroke="url(#gradient3)" stroke-width="1.5"/>
  <path d="M13 15 L27 15 L25 8 L15 8 Z" fill="url(#gradient4)" stroke="url(#gradient3)" stroke-width="1.5"/>
  
  <!-- Wheels -->
  <circle cx="15" cy="25" r="3" fill="url(#gradient3)"/>
  <circle cx="25" cy="25" r="3" fill="url(#gradient3)"/>
  
  <!-- Window -->
  <path d="M15 12 L22 12 L20 9 L17 9 Z" fill="url(#gradient5)"/>
  
  <!-- Headlight -->
  <circle cx="27" cy="12" r="1.5" fill="url(#gradient6)"/>
  
  <!-- Gradients -->
  <defs>
    <linearGradient id="gradient1" x1="0" y1="0" x2="40" y2="40" gradientUnits="userSpaceOnUse">
      <stop offset="0%" stop-color="#3B82F6"/>
      <stop offset="100%" stop-color="#8B5CF6"/>
    </linearGradient>
    <linearGradient id="gradient2" x1="10" y1="25" x2="30" y2="15" gradientUnits="userSpaceOnUse">
      <stop offset="0%" stop-color="#3B82F6"/>
      <stop offset="100%" stop-color="#8B5CF6"/>
    </linearGradient>
    <linearGradient id="gradient3" x1="0" y1="0" x2="40" y2="40" gradientUnits="userSpaceOnUse">
      <stop offset="0%" stop-color="#3B82F6"/>
      <stop offset="100%" stop-color="#8B5CF6"/>
    </linearGradient>
    <linearGradient id="gradient4" x1="13" y1="15" x2="27" y2="8" gradientUnits="userSpaceOnUse">
      <stop offset="0%" stop-color="#3B82F6"/>
      <stop offset="100%" stop-color="#8B5CF6"/>
    </linearGradient>
    <linearGradient id="gradient5" x1="15" y1="12" x2="22" y2="9" gradientUnits="userSpaceOnUse">
      <stop offset="0%" stop-color="#3B82F6"/>
      <stop offset="100%" stop-color="#8B5CF6"/>
    </linearGradient>
    <linearGradient id="gradient6" x1="25.5" y1="10.5" x2="28.5" y2="13.5" gradientUnits="userSpaceOnUse">
      <stop offset="0%" stop-color="#FCD34D"/>
      <stop offset="100%" stop-color="#F59E0B"/>
    </linearGradient>
  </defs>
</svg> 